<svg width="24" height="25" viewBox="0 0 24 25" fill="none" xmlns="http://www.w3.org/2000/svg">
<path fill-rule="evenodd" clip-rule="evenodd" d="M8.91653 2.93007C9.13742 3.43625 8.90615 4.02567 8.39996 4.24656C7.05255 4.83454 5.86969 5.74365 4.9548 6.89439C4.03991 8.04512 3.42083 9.40246 3.1517 10.8477C2.88256 12.293 2.97157 13.7822 3.41093 15.1851C3.85029 16.588 4.62663 17.862 5.67208 18.8955C6.71752 19.9291 8.00024 20.6909 9.40809 21.1142C10.8159 21.5375 12.3061 21.6095 13.7482 21.3239C15.1903 21.0382 16.5404 20.4037 17.6806 19.4757C18.8209 18.5478 19.7164 17.3546 20.289 16.0006C20.5041 15.4919 21.0908 15.2539 21.5995 15.469C22.1081 15.6841 22.3461 16.2708 22.131 16.7795C21.4312 18.4344 20.3367 19.8927 18.9431 21.0269C17.5495 22.1611 15.8993 22.9367 14.1367 23.2858C12.3742 23.6348 10.5529 23.5469 8.8322 23.0295C7.1115 22.5121 5.54373 21.5811 4.26596 20.3178C2.98819 19.0546 2.03933 17.4975 1.50234 15.7828C0.965341 14.0682 0.856557 12.248 1.1855 10.4816C1.51444 8.71515 2.27108 7.05618 3.38929 5.64973C4.50749 4.24327 5.95321 3.13214 7.60004 2.41349C8.10623 2.1926 8.69564 2.42388 8.91653 2.93007Z" fill="#A0DEFF"/>
<path fill-rule="evenodd" clip-rule="evenodd" d="M11.2929 1.79289C11.4804 1.60536 11.7348 1.5 12 1.5C13.4445 1.5 14.8749 1.78452 16.2095 2.33733C17.5441 2.89013 18.7567 3.70038 19.7782 4.72183C20.7996 5.74327 21.6099 6.9559 22.1627 8.29048C22.7155 9.62506 23 11.0555 23 12.5C23 13.0523 22.5523 13.5 22 13.5H12C11.4477 13.5 11 13.0523 11 12.5V2.5C11 2.23478 11.1054 1.98043 11.2929 1.79289ZM13 3.55573V11.5H20.9443C20.8505 10.6614 20.6391 9.83849 20.3149 9.05585C19.8626 7.96392 19.1997 6.97177 18.364 6.13604C17.5282 5.30031 16.5361 4.63738 15.4442 4.18508C14.6615 3.8609 13.8386 3.64949 13 3.55573Z" fill="#A0DEFF"/>
</svg>
