<svg width="25" height="25" viewBox="0 0 25 25" fill="none" xmlns="http://www.w3.org/2000/svg">
<path fill-rule="evenodd" clip-rule="evenodd" d="M9.0832 2.93004C9.30409 3.43622 9.07281 4.02564 8.56662 4.24653C7.21922 4.83451 6.03636 5.74362 5.12146 6.89435C4.20657 8.04509 3.58749 9.40243 3.31836 10.8477C3.04923 12.293 3.13823 13.7822 3.57759 15.1851C4.01696 16.588 4.7933 17.8619 5.83874 18.8955C6.88419 19.9291 8.16691 20.6908 9.57475 21.1141C10.9826 21.5375 12.4727 21.6095 13.9148 21.3238C15.3569 21.0382 16.7071 20.4037 17.8473 19.4757C18.9875 18.5477 19.8831 17.3546 20.4556 16.0005C20.6707 15.4919 21.2575 15.2539 21.7661 15.469C22.2748 15.6841 22.5128 16.2708 22.2977 16.7795C21.5979 18.4344 20.5034 19.8927 19.1098 21.0269C17.7162 22.1611 16.066 22.9366 14.3034 23.2857C12.5408 23.6348 10.7196 23.5468 8.99886 23.0294C7.27816 22.5121 5.71039 21.581 4.43262 20.3178C3.15486 19.0545 2.206 17.4975 1.669 15.7828C1.132 14.0681 1.02322 12.248 1.35216 10.4816C1.6811 8.71512 2.43775 7.05615 3.55595 5.6497C4.67416 4.24324 6.11987 3.13211 7.7667 2.41346C8.27289 2.19257 8.8623 2.42385 9.0832 2.93004Z" fill="#676D75"/>
<path fill-rule="evenodd" clip-rule="evenodd" d="M11.4596 1.79289C11.6471 1.60536 11.9015 1.5 12.1667 1.5C13.6112 1.5 15.0416 1.78452 16.3762 2.33733C17.7108 2.89013 18.9234 3.70038 19.9449 4.72183C20.9663 5.74327 21.7766 6.9559 22.3294 8.29048C22.8822 9.62506 23.1667 11.0555 23.1667 12.5C23.1667 13.0523 22.719 13.5 22.1667 13.5H12.1667C11.6144 13.5 11.1667 13.0523 11.1667 12.5V2.5C11.1667 2.23478 11.272 1.98043 11.4596 1.79289ZM13.1667 3.55573V11.5H21.111C21.0172 10.6614 20.8058 9.83849 20.4816 9.05585C20.0293 7.96392 19.3664 6.97177 18.5306 6.13604C17.6949 5.30031 16.7028 4.63738 15.6108 4.18508C14.8282 3.8609 14.0053 3.64949 13.1667 3.55573Z" fill="#676D75"/>
</svg>
